solid 
 facet normal -1.000000e+00  0.000000e+00  0.000000e+00
   outer loop
     vertex -4.000000e+02 -2.500000e+02  4.000000e+02
     vertex -4.000000e+02  2.500000e+02  3.000000e+02
     vertex -4.000000e+02 -2.500000e+02  3.000000e+02
   endloop
 endfacet
 facet normal -1.000000e+00  0.000000e+00  0.000000e+00
   outer loop
     vertex -4.000000e+02 -2.500000e+02  4.000000e+02
     vertex -4.000000e+02  2.500000e+02  4.000000e+02
     vertex -4.000000e+02  2.500000e+02  3.000000e+02
   endloop
 endfacet
 facet normal  1.000000e+00  0.000000e+00  0.000000e+00
   outer loop
     vertex  4.000000e+02 -2.500000e+02  4.000000e+02
     vertex  4.000000e+02 -2.500000e+02  3.000000e+02
     vertex  4.000000e+02  2.500000e+02  3.000000e+02
   endloop
 endfacet
 facet normal  1.000000e+00 -0.000000e+00  0.000000e+00
   outer loop
     vertex  4.000000e+02 -2.500000e+02  4.000000e+02
     vertex  4.000000e+02  2.500000e+02  3.000000e+02
     vertex  4.000000e+02  2.500000e+02  4.000000e+02
   endloop
 endfacet
 facet normal  0.000000e+00 -1.000000e+00  0.000000e+00
   outer loop
     vertex  4.000000e+02 -2.500000e+02  3.000000e+02
     vertex -4.000000e+02 -2.500000e+02  4.000000e+02
     vertex -4.000000e+02 -2.500000e+02  3.000000e+02
   endloop
 endfacet
 facet normal -0.000000e+00 -1.000000e+00 -0.000000e+00
   outer loop
     vertex  4.000000e+02 -2.500000e+02  4.000000e+02
     vertex -4.000000e+02 -2.500000e+02  4.000000e+02
     vertex  4.000000e+02 -2.500000e+02  3.000000e+02
   endloop
 endfacet
 facet normal  0.000000e+00  1.000000e+00  0.000000e+00
   outer loop
     vertex  4.000000e+02  2.500000e+02  3.000000e+02
     vertex -4.000000e+02  2.500000e+02  3.000000e+02
     vertex -4.000000e+02  2.500000e+02  4.000000e+02
   endloop
 endfacet
 facet normal  0.000000e+00  1.000000e+00  0.000000e+00
   outer loop
     vertex  4.000000e+02  2.500000e+02  4.000000e+02
     vertex  4.000000e+02  2.500000e+02  3.000000e+02
     vertex -4.000000e+02  2.500000e+02  4.000000e+02
   endloop
 endfacet
 facet normal -0.000000e+00  0.000000e+00 -1.000000e+00
   outer loop
     vertex  4.000000e+02  2.500000e+02  3.000000e+02
     vertex -4.000000e+02 -2.500000e+02  3.000000e+02
     vertex -4.000000e+02  2.500000e+02  3.000000e+02
   endloop
 endfacet
 facet normal  0.000000e+00 -0.000000e+00 -1.000000e+00
   outer loop
     vertex  4.000000e+02  2.500000e+02  3.000000e+02
     vertex  4.000000e+02 -2.500000e+02  3.000000e+02
     vertex -4.000000e+02 -2.500000e+02  3.000000e+02
   endloop
 endfacet
 facet normal  0.000000e+00  0.000000e+00  1.000000e+00
   outer loop
     vertex  4.000000e+02  2.500000e+02  4.000000e+02
     vertex -4.000000e+02  2.500000e+02  4.000000e+02
     vertex -4.000000e+02 -2.500000e+02  4.000000e+02
   endloop
 endfacet
 facet normal  0.000000e+00  0.000000e+00  1.000000e+00
   outer loop
     vertex  4.000000e+02  2.500000e+02  4.000000e+02
     vertex -4.000000e+02 -2.500000e+02  4.000000e+02
     vertex  4.000000e+02 -2.500000e+02  4.000000e+02
   endloop
 endfacet
 facet normal -1.000000e+00  0.000000e+00 -0.000000e+00
   outer loop
     vertex -7.000000e+02  2.612417e+02  3.565416e+02
     vertex -7.000000e+02  7.503837e+02 -6.044360e-02
     vertex -7.000000e+02  2.500000e+02  3.400000e+02
   endloop
 endfacet
 facet normal -1.000000e+00  0.000000e+00  0.000000e+00
   outer loop
     vertex -7.000000e+02  2.612417e+02  3.565416e+02
     vertex -7.000000e+02  7.616254e+02  1.648117e+01
     vertex -7.000000e+02  7.503837e+02 -6.044360e-02
   endloop
 endfacet
 facet normal  1.000000e+00  0.000000e+00  0.000000e+00
   outer loop
     vertex  7.000000e+02  2.612417e+02  3.565416e+02
     vertex  7.000000e+02  2.500000e+02  3.400000e+02
     vertex  7.000000e+02  7.503837e+02 -6.044360e-02
   endloop
 endfacet
 facet normal  1.000000e+00  0.000000e+00  0.000000e+00
   outer loop
     vertex  7.000000e+02  2.612417e+02  3.565416e+02
     vertex  7.000000e+02  7.503837e+02 -6.044360e-02
     vertex  7.000000e+02  7.616254e+02  1.648117e+01
   endloop
 endfacet
 facet normal  0.000000e+00 -8.270806e-01  5.620834e-01
   outer loop
     vertex  7.000000e+02  2.500000e+02  3.400000e+02
     vertex -7.000000e+02  2.612417e+02  3.565416e+02
     vertex -7.000000e+02  2.500000e+02  3.400000e+02
   endloop
 endfacet
 facet normal  0.000000e+00 -8.270806e-01  5.620834e-01
   outer loop
     vertex  7.000000e+02  2.612417e+02  3.565416e+02
     vertex -7.000000e+02  2.612417e+02  3.565416e+02
     vertex  7.000000e+02  2.500000e+02  3.400000e+02
   endloop
 endfacet
 facet normal  0.000000e+00  8.270806e-01 -5.620834e-01
   outer loop
     vertex  7.000000e+02  7.616254e+02  1.648117e+01
     vertex  7.000000e+02  7.503837e+02 -6.044360e-02
     vertex -7.000000e+02  7.503837e+02 -6.044360e-02
   endloop
 endfacet
 facet normal  0.000000e+00  8.270806e-01 -5.620834e-01
   outer loop
     vertex  7.000000e+02  7.616254e+02  1.648117e+01
     vertex -7.000000e+02  7.503837e+02 -6.044360e-02
     vertex -7.000000e+02  7.616254e+02  1.648117e+01
   endloop
 endfacet
 facet normal -0.000000e+00 -5.620834e-01 -8.270806e-01
   outer loop
     vertex  7.000000e+02  7.503837e+02 -6.044360e-02
     vertex -7.000000e+02  2.500000e+02  3.400000e+02
     vertex -7.000000e+02  7.503837e+02 -6.044360e-02
   endloop
 endfacet
 facet normal  0.000000e+00 -5.620834e-01 -8.270806e-01
   outer loop
     vertex  7.000000e+02  7.503837e+02 -6.044360e-02
     vertex  7.000000e+02  2.500000e+02  3.400000e+02
     vertex -7.000000e+02  2.500000e+02  3.400000e+02
   endloop
 endfacet
 facet normal  0.000000e+00  5.620834e-01  8.270806e-01
   outer loop
     vertex  7.000000e+02  7.616254e+02  1.648117e+01
     vertex -7.000000e+02  7.616254e+02  1.648117e+01
     vertex -7.000000e+02  2.612417e+02  3.565416e+02
   endloop
 endfacet
 facet normal  0.000000e+00  5.620834e-01  8.270806e-01
   outer loop
     vertex  7.000000e+02  7.616254e+02  1.648117e+01
     vertex -7.000000e+02  2.612417e+02  3.565416e+02
     vertex  7.000000e+02  2.612417e+02  3.565416e+02
   endloop
 endfacet
 facet normal -1.000000e+00  0.000000e+00  0.000000e+00
   outer loop
     vertex -7.000000e+02 -2.500000e+02  3.400000e+02
     vertex -7.000000e+02 -7.503837e+02 -6.044360e-02
     vertex -7.000000e+02 -7.616254e+02  1.648117e+01
   endloop
 endfacet
 facet normal -1.000000e+00  0.000000e+00 -0.000000e+00
   outer loop
     vertex -7.000000e+02 -2.612417e+02  3.565416e+02
     vertex -7.000000e+02 -2.500000e+02  3.400000e+02
     vertex -7.000000e+02 -7.616254e+02  1.648117e+01
   endloop
 endfacet
 facet normal  1.000000e+00  0.000000e+00  0.000000e+00
   outer loop
     vertex  7.000000e+02 -2.500000e+02  3.400000e+02
     vertex  7.000000e+02 -7.616254e+02  1.648117e+01
     vertex  7.000000e+02 -7.503837e+02 -6.044360e-02
   endloop
 endfacet
 facet normal  1.000000e+00  0.000000e+00  0.000000e+00
   outer loop
     vertex  7.000000e+02 -2.612417e+02  3.565416e+02
     vertex  7.000000e+02 -7.616254e+02  1.648117e+01
     vertex  7.000000e+02 -2.500000e+02  3.400000e+02
   endloop
 endfacet
 facet normal  0.000000e+00  8.270806e-01  5.620834e-01
   outer loop
     vertex  7.000000e+02 -2.612417e+02  3.565416e+02
     vertex  7.000000e+02 -2.500000e+02  3.400000e+02
     vertex -7.000000e+02 -2.500000e+02  3.400000e+02
   endloop
 endfacet
 facet normal  0.000000e+00  8.270806e-01  5.620834e-01
   outer loop
     vertex  7.000000e+02 -2.612417e+02  3.565416e+02
     vertex -7.000000e+02 -2.500000e+02  3.400000e+02
     vertex -7.000000e+02 -2.612417e+02  3.565416e+02
   endloop
 endfacet
 facet normal -0.000000e+00 -8.270806e-01 -5.620834e-01
   outer loop
     vertex  7.000000e+02 -7.503837e+02 -6.044360e-02
     vertex -7.000000e+02 -7.616254e+02  1.648117e+01
     vertex -7.000000e+02 -7.503837e+02 -6.044360e-02
   endloop
 endfacet
 facet normal -0.000000e+00 -8.270806e-01 -5.620834e-01
   outer loop
     vertex  7.000000e+02 -7.616254e+02  1.648117e+01
     vertex -7.000000e+02 -7.616254e+02  1.648117e+01
     vertex  7.000000e+02 -7.503837e+02 -6.044360e-02
   endloop
 endfacet
 facet normal  0.000000e+00  5.620834e-01 -8.270806e-01
   outer loop
     vertex  7.000000e+02 -7.503837e+02 -6.044360e-02
     vertex -7.000000e+02 -7.503837e+02 -6.044360e-02
     vertex -7.000000e+02 -2.500000e+02  3.400000e+02
   endloop
 endfacet
 facet normal  0.000000e+00  5.620834e-01 -8.270806e-01
   outer loop
     vertex  7.000000e+02 -7.503837e+02 -6.044360e-02
     vertex -7.000000e+02 -2.500000e+02  3.400000e+02
     vertex  7.000000e+02 -2.500000e+02  3.400000e+02
   endloop
 endfacet
 facet normal  0.000000e+00 -5.620834e-01  8.270806e-01
   outer loop
     vertex  7.000000e+02 -7.616254e+02  1.648117e+01
     vertex -7.000000e+02 -2.612417e+02  3.565416e+02
     vertex -7.000000e+02 -7.616254e+02  1.648117e+01
   endloop
 endfacet
 facet normal  0.000000e+00 -5.620834e-01  8.270806e-01
   outer loop
     vertex  7.000000e+02 -7.616254e+02  1.648117e+01
     vertex  7.000000e+02 -2.612417e+02  3.565416e+02
     vertex -7.000000e+02 -2.612417e+02  3.565416e+02
   endloop
 endfacet
 facet normal -1.000000e+00  0.000000e+00  0.000000e+00
   outer loop
     vertex -4.000000e+02  2.360000e+02  7.020000e+02
     vertex -4.000000e+02  2.660000e+02  4.020000e+02
     vertex -4.000000e+02  2.360000e+02  4.020000e+02
   endloop
 endfacet
 facet normal -1.000000e+00  0.000000e+00  0.000000e+00
   outer loop
     vertex -4.000000e+02  2.360000e+02  7.020000e+02
     vertex -4.000000e+02  2.660000e+02  7.020000e+02
     vertex -4.000000e+02  2.660000e+02  4.020000e+02
   endloop
 endfacet
 facet normal  1.000000e+00  0.000000e+00  0.000000e+00
   outer loop
     vertex  4.000000e+02  2.360000e+02  7.020000e+02
     vertex  4.000000e+02  2.360000e+02  4.020000e+02
     vertex  4.000000e+02  2.660000e+02  4.020000e+02
   endloop
 endfacet
 facet normal  1.000000e+00 -0.000000e+00  0.000000e+00
   outer loop
     vertex  4.000000e+02  2.360000e+02  7.020000e+02
     vertex  4.000000e+02  2.660000e+02  4.020000e+02
     vertex  4.000000e+02  2.660000e+02  7.020000e+02
   endloop
 endfacet
 facet normal  0.000000e+00 -1.000000e+00  0.000000e+00
   outer loop
     vertex  4.000000e+02  2.360000e+02  4.020000e+02
     vertex -4.000000e+02  2.360000e+02  7.020000e+02
     vertex -4.000000e+02  2.360000e+02  4.020000e+02
   endloop
 endfacet
 facet normal -0.000000e+00 -1.000000e+00 -0.000000e+00
   outer loop
     vertex  4.000000e+02  2.360000e+02  7.020000e+02
     vertex -4.000000e+02  2.360000e+02  7.020000e+02
     vertex  4.000000e+02  2.360000e+02  4.020000e+02
   endloop
 endfacet
 facet normal  0.000000e+00  1.000000e+00  0.000000e+00
   outer loop
     vertex  4.000000e+02  2.660000e+02  4.020000e+02
     vertex -4.000000e+02  2.660000e+02  4.020000e+02
     vertex -4.000000e+02  2.660000e+02  7.020000e+02
   endloop
 endfacet
 facet normal  0.000000e+00  1.000000e+00  0.000000e+00
   outer loop
     vertex  4.000000e+02  2.660000e+02  7.020000e+02
     vertex  4.000000e+02  2.660000e+02  4.020000e+02
     vertex -4.000000e+02  2.660000e+02  7.020000e+02
   endloop
 endfacet
 facet normal -0.000000e+00  0.000000e+00 -1.000000e+00
   outer loop
     vertex  4.000000e+02  2.660000e+02  4.020000e+02
     vertex -4.000000e+02  2.360000e+02  4.020000e+02
     vertex -4.000000e+02  2.660000e+02  4.020000e+02
   endloop
 endfacet
 facet normal  0.000000e+00 -0.000000e+00 -1.000000e+00
   outer loop
     vertex  4.000000e+02  2.660000e+02  4.020000e+02
     vertex  4.000000e+02  2.360000e+02  4.020000e+02
     vertex -4.000000e+02  2.360000e+02  4.020000e+02
   endloop
 endfacet
 facet normal  0.000000e+00  0.000000e+00  1.000000e+00
   outer loop
     vertex  4.000000e+02  2.660000e+02  7.020000e+02
     vertex -4.000000e+02  2.660000e+02  7.020000e+02
     vertex -4.000000e+02  2.360000e+02  7.020000e+02
   endloop
 endfacet
 facet normal  0.000000e+00  0.000000e+00  1.000000e+00
   outer loop
     vertex  4.000000e+02  2.660000e+02  7.020000e+02
     vertex -4.000000e+02  2.360000e+02  7.020000e+02
     vertex  4.000000e+02  2.360000e+02  7.020000e+02
   endloop
 endfacet
 facet normal -1.000000e+00  0.000000e+00  0.000000e+00
   outer loop
     vertex -4.000000e+02 -2.660000e+02  7.020000e+02
     vertex -4.000000e+02 -2.360000e+02  4.020000e+02
     vertex -4.000000e+02 -2.660000e+02  4.020000e+02
   endloop
 endfacet
 facet normal -1.000000e+00  0.000000e+00  0.000000e+00
   outer loop
     vertex -4.000000e+02 -2.660000e+02  7.020000e+02
     vertex -4.000000e+02 -2.360000e+02  7.020000e+02
     vertex -4.000000e+02 -2.360000e+02  4.020000e+02
   endloop
 endfacet
 facet normal  1.000000e+00  0.000000e+00  0.000000e+00
   outer loop
     vertex  4.000000e+02 -2.660000e+02  7.020000e+02
     vertex  4.000000e+02 -2.660000e+02  4.020000e+02
     vertex  4.000000e+02 -2.360000e+02  4.020000e+02
   endloop
 endfacet
 facet normal  1.000000e+00 -0.000000e+00  0.000000e+00
   outer loop
     vertex  4.000000e+02 -2.660000e+02  7.020000e+02
     vertex  4.000000e+02 -2.360000e+02  4.020000e+02
     vertex  4.000000e+02 -2.360000e+02  7.020000e+02
   endloop
 endfacet
 facet normal  0.000000e+00 -1.000000e+00  0.000000e+00
   outer loop
     vertex  4.000000e+02 -2.660000e+02  4.020000e+02
     vertex -4.000000e+02 -2.660000e+02  7.020000e+02
     vertex -4.000000e+02 -2.660000e+02  4.020000e+02
   endloop
 endfacet
 facet normal -0.000000e+00 -1.000000e+00 -0.000000e+00
   outer loop
     vertex  4.000000e+02 -2.660000e+02  7.020000e+02
     vertex -4.000000e+02 -2.660000e+02  7.020000e+02
     vertex  4.000000e+02 -2.660000e+02  4.020000e+02
   endloop
 endfacet
 facet normal  0.000000e+00  1.000000e+00  0.000000e+00
   outer loop
     vertex  4.000000e+02 -2.360000e+02  4.020000e+02
     vertex -4.000000e+02 -2.360000e+02  4.020000e+02
     vertex -4.000000e+02 -2.360000e+02  7.020000e+02
   endloop
 endfacet
 facet normal  0.000000e+00  1.000000e+00  0.000000e+00
   outer loop
     vertex  4.000000e+02 -2.360000e+02  7.020000e+02
     vertex  4.000000e+02 -2.360000e+02  4.020000e+02
     vertex -4.000000e+02 -2.360000e+02  7.020000e+02
   endloop
 endfacet
 facet normal -0.000000e+00  0.000000e+00 -1.000000e+00
   outer loop
     vertex  4.000000e+02 -2.360000e+02  4.020000e+02
     vertex -4.000000e+02 -2.660000e+02  4.020000e+02
     vertex -4.000000e+02 -2.360000e+02  4.020000e+02
   endloop
 endfacet
 facet normal  0.000000e+00 -0.000000e+00 -1.000000e+00
   outer loop
     vertex  4.000000e+02 -2.360000e+02  4.020000e+02
     vertex  4.000000e+02 -2.660000e+02  4.020000e+02
     vertex -4.000000e+02 -2.660000e+02  4.020000e+02
   endloop
 endfacet
 facet normal  0.000000e+00  0.000000e+00  1.000000e+00
   outer loop
     vertex  4.000000e+02 -2.360000e+02  7.020000e+02
     vertex -4.000000e+02 -2.360000e+02  7.020000e+02
     vertex -4.000000e+02 -2.660000e+02  7.020000e+02
   endloop
 endfacet
 facet normal  0.000000e+00  0.000000e+00  1.000000e+00
   outer loop
     vertex  4.000000e+02 -2.360000e+02  7.020000e+02
     vertex -4.000000e+02 -2.660000e+02  7.020000e+02
     vertex  4.000000e+02 -2.660000e+02  7.020000e+02
   endloop
 endfacet
 facet normal -1.000000e+00  0.000000e+00  0.000000e+00
   outer loop
     vertex -7.000000e+02  7.500000e+02  0.000000e+00
     vertex -7.000000e+02  1.550000e+03 -2.000000e+01
     vertex -7.000000e+02  7.500000e+02 -2.000000e+01
   endloop
 endfacet
 facet normal -1.000000e+00  0.000000e+00  0.000000e+00
   outer loop
     vertex -7.000000e+02  7.500000e+02  0.000000e+00
     vertex -7.000000e+02  1.550000e+03  0.000000e+00
     vertex -7.000000e+02  1.550000e+03 -2.000000e+01
   endloop
 endfacet
 facet normal  1.000000e+00  0.000000e+00  0.000000e+00
   outer loop
     vertex  7.000000e+02  7.500000e+02  0.000000e+00
     vertex  7.000000e+02  7.500000e+02 -2.000000e+01
     vertex  7.000000e+02  1.550000e+03 -2.000000e+01
   endloop
 endfacet
 facet normal  1.000000e+00 -0.000000e+00  0.000000e+00
   outer loop
     vertex  7.000000e+02  7.500000e+02  0.000000e+00
     vertex  7.000000e+02  1.550000e+03 -2.000000e+01
     vertex  7.000000e+02  1.550000e+03  0.000000e+00
   endloop
 endfacet
 facet normal  0.000000e+00 -1.000000e+00 -0.000000e+00
   outer loop
     vertex  7.000000e+02  7.500000e+02  0.000000e+00
     vertex -7.000000e+02  7.500000e+02 -2.000000e+01
     vertex  7.000000e+02  7.500000e+02 -2.000000e+01
   endloop
 endfacet
 facet normal -0.000000e+00 -1.000000e+00  0.000000e+00
   outer loop
     vertex  7.000000e+02  7.500000e+02  0.000000e+00
     vertex -7.000000e+02  7.500000e+02  0.000000e+00
     vertex -7.000000e+02  7.500000e+02 -2.000000e+01
   endloop
 endfacet
 facet normal  0.000000e+00  1.000000e+00  0.000000e+00
   outer loop
     vertex  7.000000e+02  1.550000e+03  0.000000e+00
     vertex  7.000000e+02  1.550000e+03 -2.000000e+01
     vertex -7.000000e+02  1.550000e+03 -2.000000e+01
   endloop
 endfacet
 facet normal  0.000000e+00  1.000000e+00  0.000000e+00
   outer loop
     vertex  7.000000e+02  1.550000e+03  0.000000e+00
     vertex -7.000000e+02  1.550000e+03 -2.000000e+01
     vertex -7.000000e+02  1.550000e+03  0.000000e+00
   endloop
 endfacet
 facet normal  0.000000e+00  0.000000e+00 -1.000000e+00
   outer loop
     vertex  7.000000e+02  7.500000e+02 -2.000000e+01
     vertex -7.000000e+02  7.500000e+02 -2.000000e+01
     vertex -7.000000e+02  1.550000e+03 -2.000000e+01
   endloop
 endfacet
 facet normal -0.000000e+00 -0.000000e+00 -1.000000e+00
   outer loop
     vertex  7.000000e+02  1.550000e+03 -2.000000e+01
     vertex  7.000000e+02  7.500000e+02 -2.000000e+01
     vertex -7.000000e+02  1.550000e+03 -2.000000e+01
   endloop
 endfacet
 facet normal  0.000000e+00  0.000000e+00  1.000000e+00
   outer loop
     vertex  7.000000e+02  7.500000e+02  0.000000e+00
     vertex -7.000000e+02  1.550000e+03  0.000000e+00
     vertex -7.000000e+02  7.500000e+02  0.000000e+00
   endloop
 endfacet
 facet normal  0.000000e+00  0.000000e+00  1.000000e+00
   outer loop
     vertex  7.000000e+02  1.550000e+03  0.000000e+00
     vertex -7.000000e+02  1.550000e+03  0.000000e+00
     vertex  7.000000e+02  7.500000e+02  0.000000e+00
   endloop
 endfacet
 facet normal -1.000000e+00  0.000000e+00 -0.000000e+00
   outer loop
     vertex -7.000000e+02 -7.500000e+02  0.000000e+00
     vertex -7.000000e+02 -7.500000e+02 -2.000000e+01
     vertex -7.000000e+02 -1.550000e+03 -2.000000e+01
   endloop
 endfacet
 facet normal -1.000000e+00 -0.000000e+00  0.000000e+00
   outer loop
     vertex -7.000000e+02 -7.500000e+02  0.000000e+00
     vertex -7.000000e+02 -1.550000e+03 -2.000000e+01
     vertex -7.000000e+02 -1.550000e+03  0.000000e+00
   endloop
 endfacet
 facet normal  1.000000e+00  0.000000e+00  0.000000e+00
   outer loop
     vertex  7.000000e+02 -7.500000e+02  0.000000e+00
     vertex  7.000000e+02 -1.550000e+03 -2.000000e+01
     vertex  7.000000e+02 -7.500000e+02 -2.000000e+01
   endloop
 endfacet
 facet normal  1.000000e+00  0.000000e+00  0.000000e+00
   outer loop
     vertex  7.000000e+02 -7.500000e+02  0.000000e+00
     vertex  7.000000e+02 -1.550000e+03  0.000000e+00
     vertex  7.000000e+02 -1.550000e+03 -2.000000e+01
   endloop
 endfacet
 facet normal  0.000000e+00  1.000000e+00  0.000000e+00
   outer loop
     vertex  7.000000e+02 -7.500000e+02  0.000000e+00
     vertex  7.000000e+02 -7.500000e+02 -2.000000e+01
     vertex -7.000000e+02 -7.500000e+02 -2.000000e+01
   endloop
 endfacet
 facet normal  0.000000e+00  1.000000e+00  0.000000e+00
   outer loop
     vertex  7.000000e+02 -7.500000e+02  0.000000e+00
     vertex -7.000000e+02 -7.500000e+02 -2.000000e+01
     vertex -7.000000e+02 -7.500000e+02  0.000000e+00
   endloop
 endfacet
 facet normal  0.000000e+00 -1.000000e+00 -0.000000e+00
   outer loop
     vertex  7.000000e+02 -1.550000e+03  0.000000e+00
     vertex -7.000000e+02 -1.550000e+03 -2.000000e+01
     vertex  7.000000e+02 -1.550000e+03 -2.000000e+01
   endloop
 endfacet
 facet normal -0.000000e+00 -1.000000e+00  0.000000e+00
   outer loop
     vertex  7.000000e+02 -1.550000e+03  0.000000e+00
     vertex -7.000000e+02 -1.550000e+03  0.000000e+00
     vertex -7.000000e+02 -1.550000e+03 -2.000000e+01
   endloop
 endfacet
 facet normal -0.000000e+00  0.000000e+00 -1.000000e+00
   outer loop
     vertex  7.000000e+02 -7.500000e+02 -2.000000e+01
     vertex -7.000000e+02 -1.550000e+03 -2.000000e+01
     vertex -7.000000e+02 -7.500000e+02 -2.000000e+01
   endloop
 endfacet
 facet normal  0.000000e+00  0.000000e+00 -1.000000e+00
   outer loop
     vertex  7.000000e+02 -1.550000e+03 -2.000000e+01
     vertex -7.000000e+02 -1.550000e+03 -2.000000e+01
     vertex  7.000000e+02 -7.500000e+02 -2.000000e+01
   endloop
 endfacet
 facet normal  0.000000e+00  0.000000e+00  1.000000e+00
   outer loop
     vertex  7.000000e+02 -7.500000e+02  0.000000e+00
     vertex -7.000000e+02 -7.500000e+02  0.000000e+00
     vertex -7.000000e+02 -1.550000e+03  0.000000e+00
   endloop
 endfacet
 facet normal  0.000000e+00 -0.000000e+00  1.000000e+00
   outer loop
     vertex  7.000000e+02 -1.550000e+03  0.000000e+00
     vertex  7.000000e+02 -7.500000e+02  0.000000e+00
     vertex -7.000000e+02 -1.550000e+03  0.000000e+00
   endloop
 endfacet
 facet normal -1.000000e+00  0.000000e+00  0.000000e+00
   outer loop
     vertex  4.500000e+02 -2.500000e+02  2.700000e+02
     vertex  4.500000e+02  2.500000e+02  2.500000e+02
     vertex  4.500000e+02 -2.500000e+02  2.500000e+02
   endloop
 endfacet
 facet normal -1.000000e+00  0.000000e+00  0.000000e+00
   outer loop
     vertex  4.500000e+02 -2.500000e+02  2.700000e+02
     vertex  4.500000e+02  2.500000e+02  2.700000e+02
     vertex  4.500000e+02  2.500000e+02  2.500000e+02
   endloop
 endfacet
 facet normal  1.000000e+00  0.000000e+00  0.000000e+00
   outer loop
     vertex  8.500000e+02 -2.500000e+02  2.700000e+02
     vertex  8.500000e+02 -2.500000e+02  2.500000e+02
     vertex  8.500000e+02  2.500000e+02  2.500000e+02
   endloop
 endfacet
 facet normal  1.000000e+00 -0.000000e+00  0.000000e+00
   outer loop
     vertex  8.500000e+02 -2.500000e+02  2.700000e+02
     vertex  8.500000e+02  2.500000e+02  2.500000e+02
     vertex  8.500000e+02  2.500000e+02  2.700000e+02
   endloop
 endfacet
 facet normal  0.000000e+00 -1.000000e+00 -0.000000e+00
   outer loop
     vertex  8.500000e+02 -2.500000e+02  2.700000e+02
     vertex  4.500000e+02 -2.500000e+02  2.500000e+02
     vertex  8.500000e+02 -2.500000e+02  2.500000e+02
   endloop
 endfacet
 facet normal -0.000000e+00 -1.000000e+00  0.000000e+00
   outer loop
     vertex  8.500000e+02 -2.500000e+02  2.700000e+02
     vertex  4.500000e+02 -2.500000e+02  2.700000e+02
     vertex  4.500000e+02 -2.500000e+02  2.500000e+02
   endloop
 endfacet
 facet normal  0.000000e+00  1.000000e+00  0.000000e+00
   outer loop
     vertex  8.500000e+02  2.500000e+02  2.700000e+02
     vertex  8.500000e+02  2.500000e+02  2.500000e+02
     vertex  4.500000e+02  2.500000e+02  2.500000e+02
   endloop
 endfacet
 facet normal  0.000000e+00  1.000000e+00  0.000000e+00
   outer loop
     vertex  8.500000e+02  2.500000e+02  2.700000e+02
     vertex  4.500000e+02  2.500000e+02  2.500000e+02
     vertex  4.500000e+02  2.500000e+02  2.700000e+02
   endloop
 endfacet
 facet normal -0.000000e+00  0.000000e+00 -1.000000e+00
   outer loop
     vertex  8.500000e+02  2.500000e+02  2.500000e+02
     vertex  4.500000e+02 -2.500000e+02  2.500000e+02
     vertex  4.500000e+02  2.500000e+02  2.500000e+02
   endloop
 endfacet
 facet normal  0.000000e+00 -0.000000e+00 -1.000000e+00
   outer loop
     vertex  8.500000e+02  2.500000e+02  2.500000e+02
     vertex  8.500000e+02 -2.500000e+02  2.500000e+02
     vertex  4.500000e+02 -2.500000e+02  2.500000e+02
   endloop
 endfacet
 facet normal  0.000000e+00  0.000000e+00  1.000000e+00
   outer loop
     vertex  8.500000e+02  2.500000e+02  2.700000e+02
     vertex  4.500000e+02  2.500000e+02  2.700000e+02
     vertex  4.500000e+02 -2.500000e+02  2.700000e+02
   endloop
 endfacet
 facet normal  0.000000e+00  0.000000e+00  1.000000e+00
   outer loop
     vertex  8.500000e+02  2.500000e+02  2.700000e+02
     vertex  4.500000e+02 -2.500000e+02  2.700000e+02
     vertex  8.500000e+02 -2.500000e+02  2.700000e+02
   endloop
 endfacet
 facet normal -1.000000e+00  0.000000e+00  0.000000e+00
   outer loop
     vertex  8.300000e+02 -2.500000e+02  4.000000e+02
     vertex  8.300000e+02  2.500000e+02  2.500000e+02
     vertex  8.300000e+02 -2.500000e+02  2.500000e+02
   endloop
 endfacet
 facet normal -1.000000e+00  0.000000e+00  0.000000e+00
   outer loop
     vertex  8.300000e+02 -2.500000e+02  4.000000e+02
     vertex  8.300000e+02  2.500000e+02  4.000000e+02
     vertex  8.300000e+02  2.500000e+02  2.500000e+02
   endloop
 endfacet
 facet normal  1.000000e+00  0.000000e+00  0.000000e+00
   outer loop
     vertex  8.500000e+02 -2.500000e+02  4.000000e+02
     vertex  8.500000e+02 -2.500000e+02  2.500000e+02
     vertex  8.500000e+02  2.500000e+02  2.500000e+02
   endloop
 endfacet
 facet normal  1.000000e+00 -0.000000e+00  0.000000e+00
   outer loop
     vertex  8.500000e+02 -2.500000e+02  4.000000e+02
     vertex  8.500000e+02  2.500000e+02  2.500000e+02
     vertex  8.500000e+02  2.500000e+02  4.000000e+02
   endloop
 endfacet
 facet normal  0.000000e+00 -1.000000e+00 -0.000000e+00
   outer loop
     vertex  8.500000e+02 -2.500000e+02  4.000000e+02
     vertex  8.300000e+02 -2.500000e+02  2.500000e+02
     vertex  8.500000e+02 -2.500000e+02  2.500000e+02
   endloop
 endfacet
 facet normal -0.000000e+00 -1.000000e+00  0.000000e+00
   outer loop
     vertex  8.500000e+02 -2.500000e+02  4.000000e+02
     vertex  8.300000e+02 -2.500000e+02  4.000000e+02
     vertex  8.300000e+02 -2.500000e+02  2.500000e+02
   endloop
 endfacet
 facet normal  0.000000e+00  1.000000e+00  0.000000e+00
   outer loop
     vertex  8.500000e+02  2.500000e+02  4.000000e+02
     vertex  8.500000e+02  2.500000e+02  2.500000e+02
     vertex  8.300000e+02  2.500000e+02  2.500000e+02
   endloop
 endfacet
 facet normal  0.000000e+00  1.000000e+00  0.000000e+00
   outer loop
     vertex  8.500000e+02  2.500000e+02  4.000000e+02
     vertex  8.300000e+02  2.500000e+02  2.500000e+02
     vertex  8.300000e+02  2.500000e+02  4.000000e+02
   endloop
 endfacet
 facet normal -0.000000e+00  0.000000e+00 -1.000000e+00
   outer loop
     vertex  8.500000e+02  2.500000e+02  2.500000e+02
     vertex  8.300000e+02 -2.500000e+02  2.500000e+02
     vertex  8.300000e+02  2.500000e+02  2.500000e+02
   endloop
 endfacet
 facet normal  0.000000e+00 -0.000000e+00 -1.000000e+00
   outer loop
     vertex  8.500000e+02  2.500000e+02  2.500000e+02
     vertex  8.500000e+02 -2.500000e+02  2.500000e+02
     vertex  8.300000e+02 -2.500000e+02  2.500000e+02
   endloop
 endfacet
 facet normal  0.000000e+00  0.000000e+00  1.000000e+00
   outer loop
     vertex  8.500000e+02  2.500000e+02  4.000000e+02
     vertex  8.300000e+02  2.500000e+02  4.000000e+02
     vertex  8.300000e+02 -2.500000e+02  4.000000e+02
   endloop
 endfacet
 facet normal  0.000000e+00  0.000000e+00  1.000000e+00
   outer loop
     vertex  8.500000e+02  2.500000e+02  4.000000e+02
     vertex  8.300000e+02 -2.500000e+02  4.000000e+02
     vertex  8.500000e+02 -2.500000e+02  4.000000e+02
   endloop
 endfacet
 facet normal -1.000000e+00  0.000000e+00  0.000000e+00
   outer loop
     vertex  4.400000e+02 -2.500000e+02  4.000000e+02
     vertex  4.400000e+02  2.500000e+02  2.500000e+02
     vertex  4.400000e+02 -2.500000e+02  2.500000e+02
   endloop
 endfacet
 facet normal -1.000000e+00  0.000000e+00  0.000000e+00
   outer loop
     vertex  4.400000e+02 -2.500000e+02  4.000000e+02
     vertex  4.400000e+02  2.500000e+02  4.000000e+02
     vertex  4.400000e+02  2.500000e+02  2.500000e+02
   endloop
 endfacet
 facet normal  1.000000e+00  0.000000e+00  0.000000e+00
   outer loop
     vertex  4.600000e+02 -2.500000e+02  4.000000e+02
     vertex  4.600000e+02 -2.500000e+02  2.500000e+02
     vertex  4.600000e+02  2.500000e+02  2.500000e+02
   endloop
 endfacet
 facet normal  1.000000e+00 -0.000000e+00  0.000000e+00
   outer loop
     vertex  4.600000e+02 -2.500000e+02  4.000000e+02
     vertex  4.600000e+02  2.500000e+02  2.500000e+02
     vertex  4.600000e+02  2.500000e+02  4.000000e+02
   endloop
 endfacet
 facet normal  0.000000e+00 -1.000000e+00 -0.000000e+00
   outer loop
     vertex  4.600000e+02 -2.500000e+02  4.000000e+02
     vertex  4.400000e+02 -2.500000e+02  2.500000e+02
     vertex  4.600000e+02 -2.500000e+02  2.500000e+02
   endloop
 endfacet
 facet normal -0.000000e+00 -1.000000e+00  0.000000e+00
   outer loop
     vertex  4.600000e+02 -2.500000e+02  4.000000e+02
     vertex  4.400000e+02 -2.500000e+02  4.000000e+02
     vertex  4.400000e+02 -2.500000e+02  2.500000e+02
   endloop
 endfacet
 facet normal  0.000000e+00  1.000000e+00  0.000000e+00
   outer loop
     vertex  4.600000e+02  2.500000e+02  4.000000e+02
     vertex  4.600000e+02  2.500000e+02  2.500000e+02
     vertex  4.400000e+02  2.500000e+02  2.500000e+02
   endloop
 endfacet
 facet normal  0.000000e+00  1.000000e+00  0.000000e+00
   outer loop
     vertex  4.600000e+02  2.500000e+02  4.000000e+02
     vertex  4.400000e+02  2.500000e+02  2.500000e+02
     vertex  4.400000e+02  2.500000e+02  4.000000e+02
   endloop
 endfacet
 facet normal -0.000000e+00  0.000000e+00 -1.000000e+00
   outer loop
     vertex  4.600000e+02  2.500000e+02  2.500000e+02
     vertex  4.400000e+02 -2.500000e+02  2.500000e+02
     vertex  4.400000e+02  2.500000e+02  2.500000e+02
   endloop
 endfacet
 facet normal  0.000000e+00 -0.000000e+00 -1.000000e+00
   outer loop
     vertex  4.600000e+02  2.500000e+02  2.500000e+02
     vertex  4.600000e+02 -2.500000e+02  2.500000e+02
     vertex  4.400000e+02 -2.500000e+02  2.500000e+02
   endloop
 endfacet
 facet normal  0.000000e+00  0.000000e+00  1.000000e+00
   outer loop
     vertex  4.600000e+02  2.500000e+02  4.000000e+02
     vertex  4.400000e+02  2.500000e+02  4.000000e+02
     vertex  4.400000e+02 -2.500000e+02  4.000000e+02
   endloop
 endfacet
 facet normal  0.000000e+00  0.000000e+00  1.000000e+00
   outer loop
     vertex  4.600000e+02  2.500000e+02  4.000000e+02
     vertex  4.400000e+02 -2.500000e+02  4.000000e+02
     vertex  4.600000e+02 -2.500000e+02  4.000000e+02
   endloop
 endfacet
endsolid
